<svg fill="#000000" xmlns="http://www.w3.org/2000/svg"  viewBox="0 0 32 32" width="32px" height="32px"><path d="M 16 3 C 8.832031 3 3 8.832031 3 16 C 3 23.167969 8.832031 29 16 29 C 23.167969 29 29 23.167969 29 16 C 29 8.832031 23.167969 3 16 3 Z M 16 5 C 22.085938 5 27 9.914063 27 16 C 27 22.085938 22.085938 27 16 27 C 9.914063 27 5 22.085938 5 16 C 5 9.914063 9.914063 5 16 5 Z M 23 9.03125 C 22.988281 9.03125 22.980469 9.03125 22.96875 9.03125 C 18.988281 9.066406 15.019531 12.011719 13.03125 14 C 11.03125 14 8.03125 15 7.03125 17 L 12.03125 17 L 11.03125 19 L 13 21 L 15 20 L 15 25 C 17 24 18 21 18 19 C 19.988281 17.011719 22.933594 13.042969 22.96875 9.0625 Z M 19 12 C 19.550781 12 20 12.449219 20 13 C 20 13.550781 19.550781 14 19 14 C 18.449219 14 18 13.550781 18 13 C 18 12.449219 18.449219 12 19 12 Z M 10.59375 19.59375 C 10.59375 19.59375 9.007813 20.207031 9.007813 22.996094 L 9 23 L 9.003906 23 C 11.792969 22.996094 12.40625 21.410156 12.40625 21.410156 L 12.21875 21.222656 C 12.21875 21.222656 11.503906 21.808594 10.207031 21.808594 L 10.199219 21.808594 L 10.199219 21.796875 C 10.199219 20.5 10.78125 19.78125 10.78125 19.78125 Z"/></svg>