<svg class="svg-icon" style="width: 1em; height: 1em;vertical-align: middle;fill: currentColor;overflow: hidden;" viewBox="0 0 1024 1024" version="1.1" xmlns="http://www.w3.org/2000/svg"><path d="M433 203.2H213c-22 0-40 18-40 40v220c0 22 18 40 40 40h220c22 0 40-18 40-40v-220c0-22-18-40-40-40z m0 260l-219.9 0.1s-0.1 0-0.1-0.1V243.3s0-0.1 0.1-0.1H433s0.1 0 0.1 0.1l-0.1 219.9zM702.5 203.2c-82.5 0-150 67.5-150 150s67.5 150 150 150 150-67.5 150-150-67.5-150-150-150z m77.7 227.7c-20.9 20.9-48.4 32.3-77.7 32.3-29.2 0-56.8-11.5-77.7-32.3-20.9-20.9-32.3-48.4-32.3-77.7 0-29.2 11.5-56.8 32.3-77.7 20.9-20.9 48.4-32.3 77.7-32.3 29.2 0 56.8 11.5 77.7 32.3 20.9 20.9 32.3 48.4 32.3 77.7 0 29.2-11.5 56.8-32.3 77.7zM431.3 564.2h-220c-22 0-40 18-40 40v220c0 22 18 40 40 40h220c22 0 40-18 40-40v-220c0-22-18-40-40-40z m0 260l-219.9 0.1s-0.1 0-0.1-0.1V604.3s0-0.1 0.1-0.1h219.9s0.1 0 0.1 0.1l-0.1 219.9zM812.5 564.2h-220c-22 0-40 18-40 40v220c0 22 18 40 40 40h220c22 0 40-18 40-40v-220c0-22-18-40-40-40z m0 260l-219.9 0.1s-0.1 0-0.1-0.1V604.3s0-0.1 0.1-0.1h219.9s0.1 0 0.1 0.1l-0.1 219.9z" fill="#5ABE64" /></svg>